<svg viewBox="0 0 27 27" fill="none" xmlns="http://www.w3.org/2000/svg">
<path d="M18.9934 1.99713H8.11501C4.76772 1.99713 2.0542 4.70993 2.0542 8.05633V18.9318C2.0542 22.2782 4.76772 24.991 8.11501 24.991H18.9934C22.3407 24.991 25.0542 22.2782 25.0542 18.9318V8.05633C25.0542 4.70993 22.3407 1.99713 18.9934 1.99713Z" stroke="#ef7171" stroke-width="2.25338"/>
<path d="M13.5544 18.8542C16.5154 18.8542 18.9158 16.4544 18.9158 13.4942C18.9158 10.5339 16.5154 8.13409 13.5544 8.13409C10.5933 8.13409 8.19287 10.5339 8.19287 13.4942C8.19287 16.4544 10.5933 18.8542 13.5544 18.8542Z" stroke="#ef7171" stroke-width="2.25338"/>
<path d="M20.3142 8.21175C21.1296 8.21175 21.7906 7.55094 21.7906 6.73579C21.7906 5.92064 21.1296 5.25983 20.3142 5.25983C19.4989 5.25983 18.8379 5.92064 18.8379 6.73579C18.8379 7.55094 19.4989 8.21175 20.3142 8.21175Z" fill="#ef7171"/>
</svg>
