<svg viewBox="0 0 22 25" fill="none" xmlns="http://www.w3.org/2000/svg">
<path d="M21.2155 10.8368C19.1513 10.8417 17.1377 10.1981 15.4592 8.99697V17.3744C15.4587 18.926 14.9843 20.4404 14.0996 21.7152C13.2148 22.9899 11.9619 23.9643 10.5083 24.508C9.05465 25.0516 7.46967 25.1387 5.96524 24.7575C4.46081 24.3762 3.10866 23.5449 2.08957 22.3747C1.07048 21.2045 0.43304 19.7511 0.262479 18.2089C0.0919181 16.6667 0.396368 15.1093 1.13512 13.7447C1.87387 12.3802 3.01171 11.2736 4.39649 10.5731C5.78127 9.87248 7.34699 9.61125 8.88429 9.8243V14.0378C8.18082 13.8166 7.42542 13.8233 6.72597 14.0569C6.02651 14.2905 5.41877 14.739 4.98953 15.3385C4.5603 15.938 4.33151 16.6578 4.33586 17.395C4.3402 18.1323 4.57745 18.8493 5.01372 19.4437C5.44999 20.0381 6.06297 20.4795 6.76513 20.7048C7.46729 20.9302 8.22272 20.9279 8.92353 20.6985C9.62435 20.469 10.2347 20.024 10.6675 19.427C11.1002 18.83 11.3332 18.1116 11.3332 17.3744V0.997375H15.4592C15.4564 1.34572 15.4856 1.69359 15.5464 2.03658C15.6898 2.80227 15.9879 3.53066 16.4226 4.17721C16.8572 4.82376 17.4191 5.37488 18.0741 5.79685C19.0059 6.41282 20.0984 6.74114 21.2155 6.7409V10.8368Z" fill="#ef7171"/>
</svg>
