<svg viewBox="0 0 29 24" fill="none" xmlns="http://www.w3.org/2000/svg">
<path d="M28.5846 3.71912C27.5369 4.18231 26.4087 4.49111 25.2287 4.63407C26.4375 3.91354 27.3585 2.77557 27.796 1.42602C26.6678 2.08364 25.4186 2.56971 24.089 2.82704C23.024 1.7005 21.5044 0.997131 19.8236 0.997131C16.5943 0.997131 13.981 3.59331 13.981 6.80136C13.981 7.25884 14.0328 7.69916 14.1306 8.12232C9.27811 7.88215 4.97243 5.57189 2.08855 2.06076C1.58776 2.91853 1.29994 3.91354 1.29994 4.97717C1.29994 6.99007 2.33031 8.76851 3.89601 9.80927C2.94048 9.78068 2.03674 9.51763 1.24814 9.08302C1.24814 9.1059 1.24814 9.12877 1.24814 9.15736C1.24814 11.9708 3.26283 14.3154 5.93373 14.8472C5.44445 14.9788 4.92638 15.0531 4.39681 15.0531C4.02265 15.0531 3.65425 15.0188 3.29736 14.9502C4.03992 17.2547 6.19851 18.9359 8.75429 18.9817C6.75687 20.5371 4.23563 21.4635 1.50141 21.4635C1.0294 21.4635 0.563142 21.4349 0.108398 21.3834C2.69296 23.0303 5.7668 23.991 9.06513 23.991C19.8121 23.991 25.6892 15.1503 25.6892 7.47614C25.6892 7.22453 25.6834 6.97291 25.6719 6.72702C26.8117 5.90356 27.8017 4.87996 28.5846 3.71912Z" fill="#ef7171"/>
</svg>
